{"accessors" : [{"bufferView" : 0, "byteOffset" : 0, "componentType" : 5123, "count" : 750, "type" : "SCALAR", "max" : [749], "min" : [0]}, {"bufferView" : 1, "byteOffset" : 0, "componentType" : 5126, "count" : 750, "type" : "VEC3", "max" : [199.01800537109375, 3.329580037461188E-30, 174.39093017578125], "min" : [-123.02227783203125, -1.5524680065798213E-13, -64.41939544677734], "name" : "POSITION"}, {"bufferView" : 1, "byteOffset" : 12, "componentType" : 5126, "count" : 750, "type" : "VEC3", "max" : [7.999264275026141E-16, 1.0000044107437134, 7.652655216636129E-16], "min" : [-5.93154078079484E-17, 1, -6.041352382008154E-16], "name" : "NORMAL"}, {"bufferView" : 1, "byteOffset" : 24, "componentType" : 5126, "count" : 750, "type" : "VEC2", "max" : [1, -0], "min" : [0, -1], "name" : "TEXCOORD_0"}], "asset" : {"generator" : "Aspose.3D 22.1", "version" : "2.0"}, "buffers" : [{"uri" : "data:application/octet-stream;base64,", "byteLength" : 25508}], "bufferViews" : [{"buffer" : 0, "byteOffset" : 0, "byteLength" : 1500, "target" : 34963}, {"buffer" : 0, "byteOffset" : 1504, "byteLength" : 24000, "byteStride" : 32, "target" : 34962}], "materials" : [{"name" : "", "pbrMetallicRoughness" : {"baseColorFactor" : [0.5, 0.5, 0.5, 1], "metallicFactor" : 0, "roughnessFactor" : 0}, "emissiveFactor" : [0, 0, 0], "alphaMode" : "OPAQUE", "doubleSided" : false}], "meshes" : [{"primitives" : [{"attributes" : {"POSITION" : 1, "NORMAL" : 2, "TEXCOORD_0" : 3}, "indices" : 0, "material" : 0, "mode" : 4}], "name" : ""}], "nodes" : [{"matrix" : [0.07531098478251386, 0, 0, 0, 0, 0.11372402481501516, 0, 0, 0, 0, 0.13981074859295334, 0, -3.1794964907944325, 0, -6.8281710620356995, 1], "mesh" : 0, "name" : "pPlane1"}], "scene" : 0, "scenes" : [{"nodes" : [0]}]}