{
  "accessors": [
    {
      "bufferView": 2,
      "componentType": 5126,
      "count": 190,
      "max": [
        187.7385711669922,
        1.9073486328125e-06,
        170.68310546875
      ],
      "min": [
        -111.27462768554688,
        -1.5524680065798213e-13,
        -57.589073181152344
      ],
      "type": "VEC3"
    },
    {
      "bufferView": 2,
      "byteOffset": 2280,
      "componentType": 5126,
      "count": 190,
      "max": [
        1.0782838474039202e-15,
        1.0,
        8.927736793180982e-16
      ],
      "min": [
        -7.559170711601837e-08,
        -1.0,
        -1.1939661135329516e-06
      ],
      "type": "VEC3"
    },
    {
      "bufferView": 1,
      "componentType": 5126,
      "count": 190,
      "max": [
        1.0,
        1.0
      ],
      "min": [
        0.0,
        0.0
      ],
      "type": "VEC2"
    },
    {
      "bufferView": 0,
      "componentType": 5125,
      "count": 747,
      "type": "SCALAR"
    }
  ],
  "asset": {
    "extras": {
      "author": "vickeychee99 (https://sketchfab.com/vickeychee99)",
      "license": "CC-BY-4.0 (http://creativecommons.org/licenses/by/4.0/)",
      "source": "https://sketchfab.com/3d-models/wet-pairies-nav-mesh-7d74b92f65e04510a5c6a10f214697d5",
      "title": "Wet Pairies Nav Mesh"
    },
    "generator": "Sketchfab-12.56.0",
    "version": "2.0"
  },
  "bufferViews": [
    {
      "buffer": 0,
      "byteLength": 2988,
      "name": "floatBufferViews",
      "target": 34963
    },
    {
      "buffer": 0,
      "byteLength": 1520,
      "byteOffset": 2988,
      "byteStride": 8,
      "name": "floatBufferViews",
      "target": 34962
    },
    {
      "buffer": 0,
      "byteLength": 4560,
      "byteOffset": 4508,
      "byteStride": 12,
      "name": "floatBufferViews",
      "target": 34962
    }
  ],
  "buffers": [
    {
      "byteLength": 9068,
      "uri": "scene.bin"
    }
  ],
  "materials": [
    {
      "doubleSided": true,
      "name": "lambert1",
      "pbrMetallicRoughness": {
        "baseColorFactor": [
          0.5,
          0.5,
          0.5,
          1.0
        ],
        "metallicFactor": 0.0,
        "roughnessFactor": 0.6
      }
    }
  ],
  "meshes": [
    {
      "name": "pPlane1_lambert1_0",
      "primitives": [
        {
          "attributes": {
            "NORMAL": 1,
            "POSITION": 0,
            "TEXCOORD_0": 2
          },
          "indices": 3,
          "material": 0,
          "mode": 4
        }
      ]
    }
  ],
  "nodes": [
    {
      "children": [
        1
      ],
      "matrix": [
        1.0,
        0.0,
        0.0,
        0.0,
        0.0,
        2.220446049250313e-16,
        -1.0,
        0.0,
        0.0,
        1.0,
        2.220446049250313e-16,
        0.0,
        0.0,
        0.0,
        0.0,
        1.0
      ],
      "name": "Sketchfab_model"
    },
    {
      "children": [
        2
      ],
      "matrix": [
        1.0,
        0.0,
        0.0,
        0.0,
        0.0,
        0.0,
        1.0,
        0.0,
        0.0,
        -1.0,
        0.0,
        0.0,
        0.0,
        0.0,
        0.0,
        1.0
      ],
      "name": "692fbc782e3a46d6b8d601d7cafcf894.fbx"
    },
    {
      "children": [
        3
      ],
      "name": "RootNode"
    },
    {
      "children": [
        4
      ],
      "matrix": [
        0.07531098276376724,
        0.0,
        0.0,
        0.0,
        0.0,
        0.11372402310371399,
        0.0,
        0.0,
        0.0,
        0.0,
        0.13981075584888458,
        0.0,
        -3.1794965267181396,
        0.0,
        -6.828171253204346,
        1.0
      ],
      "name": "pPlane1"
    },
    {
      "mesh": 0,
      "name": "pPlane1_lambert1_0"
    }
  ],
  "scene": 0,
  "scenes": [
    {
      "name": "Sketchfab_Scene",
      "nodes": [
        0
      ]
    }
  ]
}
